<svg id="Layer_1" data-name="Layer 1" xmlns="http://www.w3.org/2000/svg" viewBox="0 0 1236.55 300"><title>logo_R02</title><path d="M290.31,101.14l-38.06,66-38.07,66L176.07,299,138,233.05l38.06-66,38.11-65.95L156.36,1h76.12l19.77,34.18ZM80.18,1H4L99.89,167.09,138,101.14ZM403.69,35.18,383.93,1H307.8l57.83,100.14-38.12,66-38.06,66L327.51,299l38.12-65.95,38.06-66,38.06-65.95Z"/><path d="M802.3,37.45h38.25l-64.88,182.2h-32.3L701.24,99,658.6,219.65H626.3L561.69,37.45h40.83L644.13,163.3l44.2-125.85h28.16l42.64,127.16Z"/><path d="M866.91,31.77h41.86V68.2H866.91Zm1.28,187.88V92.76h39V219.65Z"/><path d="M1057.32,103q11.12,13.32,11.11,40.19v76.5h-39V145q0-12.93-4.78-18.86c-3.19-4-8.14-5.95-14.86-5.95q-12.15,0-19.51,7.76t-7.37,20.67v71.07h-39V92.76h38v18.09A44.35,44.35,0,0,1,999.3,95.08a52.76,52.76,0,0,1,24.17-5.43Q1046.19,89.65,1057.32,103Z"/><path d="M1233.39,92.76V206q0,30.77-17.58,46.53t-51.94,15.75a128.57,128.57,0,0,1-32.7-4.12,99.62,99.62,0,0,1-27.52-11.63L1114,225.6Q1138.53,239,1162.84,239q32,0,32-30.25v-14a38.33,38.33,0,0,1-16.28,15.52,51.58,51.58,0,0,1-24.29,5.68q-16.55,0-29.34-7.76a53,53,0,0,1-20-22.08q-7.25-14.35-7.24-33.21t7.24-33.21a53.8,53.8,0,0,1,20-22.23q12.79-7.89,29.34-7.89a51.23,51.23,0,0,1,23.9,5.55,39.61,39.61,0,0,1,16.42,15.38V92.76ZM1187,177.52c5.08-5.85,7.63-14.05,7.63-24.54s-2.55-18.74-7.63-24.7-12.2-8.91-21.33-8.91-16.27,3-21.45,8.91-7.75,14.18-7.75,24.7q0,15.48,7.75,24.41t21.45,8.92Q1179.36,186.31,1187,177.52Z"/></svg>